<svg width="92" height="41" viewBox="0 0 92 41" fill="none" xmlns="http://www.w3.org/2000/svg">
<path d="M11.59 13.135C10.69 13.135 10 13.345 9.52 13.765C9.04 14.185 8.8 14.68 8.8 15.25C8.8 15.79 9.01 16.195 9.43 16.465C9.85 16.735 10.93 17.14 12.67 17.68C14.44 18.22 15.76 18.85 16.63 19.57C17.53 20.26 17.98 21.4 17.98 22.99C17.98 25.81 17.05 27.94 15.19 29.38C13.36 30.82 10.915 31.54 7.855 31.54C6.565 31.54 5.26 31.405 3.94 31.135C2.65 30.895 1.69 30.64 1.06 30.37L0.0700002 30.01L1.195 25.6C4.075 26.14 6.565 26.41 8.665 26.41C10.765 26.41 11.815 25.675 11.815 24.205C11.815 23.815 11.605 23.515 11.185 23.305C10.765 23.065 10.045 22.795 9.025 22.495C6.895 21.895 5.32 21.19 4.3 20.38C3.28 19.57 2.77 18.415 2.77 16.915C2.77 14.125 3.685 11.95 5.515 10.39C7.345 8.8 9.55 8.005 12.13 8.005C13.54 8.005 14.92 8.125 16.27 8.365C17.62 8.575 18.61 8.8 19.24 9.04L20.23 9.4L19.15 13.855C16.06 13.375 13.54 13.135 11.59 13.135ZM36.2788 31H20.3488L27.4138 0.4H33.6238L27.8188 25.6H37.4938L36.2788 31ZM46.1335 31.54C43.9435 31.54 42.3385 30.805 41.3185 29.335C40.2985 27.835 39.7885 25.84 39.7885 23.35C39.7885 19.9 40.6585 16.585 42.3985 13.405C43.2685 11.815 44.4685 10.51 45.9985 9.49C47.5285 8.47 49.2685 7.96 51.2185 7.96C53.2885 7.96 56.3485 8.32 60.3985 9.04L62.4685 9.445L59.0935 23.98L57.8785 30.865L51.8935 31.09C52.1635 29.26 52.3585 28.09 52.4785 27.58C51.2485 29.23 49.8085 30.4 48.1585 31.09C47.4685 31.39 46.7935 31.54 46.1335 31.54ZM51.3985 13.09C50.2585 13.09 49.2535 13.675 48.3835 14.845C46.7335 17.065 45.9085 19.9 45.9085 23.35C45.9085 24.4 46.0735 25.18 46.4035 25.69C46.7335 26.17 47.2435 26.41 47.9335 26.41C48.6535 26.41 49.4485 26.08 50.3185 25.42C51.2185 24.76 51.9685 24.1 52.5685 23.44L53.4685 22.405L55.5385 13.72C53.5585 13.3 52.1785 13.09 51.3985 13.09ZM78.7729 7.96C80.9629 7.96 82.5979 8.665 83.6779 10.075C84.7579 11.455 85.2979 13.39 85.2979 15.88C85.2979 18.34 84.8779 20.755 84.0379 23.125C83.2279 25.465 81.9379 27.445 80.1679 29.065C78.3979 30.685 76.3279 31.495 73.9579 31.495C72.6079 31.495 71.0929 31.27 69.4129 30.82L68.5129 30.55L66.2179 40.45H60.2779L67.6129 8.5H73.5079L73.0579 10.84C73.8079 10.09 74.7229 9.43 75.8029 8.86C76.9129 8.26 77.9029 7.96 78.7729 7.96ZM76.8829 13.09C76.4029 13.09 75.7279 13.36 74.8579 13.9C74.0179 14.44 73.2979 14.98 72.6979 15.52L71.7979 16.33L69.6379 25.735C71.3779 26.155 72.7879 26.365 73.8679 26.365C74.9779 26.365 75.9379 25.78 76.7479 24.61C77.5879 23.41 78.2029 22.03 78.5929 20.47C78.9829 18.91 79.1779 17.41 79.1779 15.97C79.1779 14.05 78.4129 13.09 76.8829 13.09ZM84.0534 31L85.6284 24.115H91.7484L90.1734 31H84.0534Z" fill="white"/>
</svg>
